<?xml version="1.0" encoding="UTF-8"?>
<svg xmlns="http://www.w3.org/2000/svg" xmlns:xlink="http://www.w3.org/1999/xlink" width="256pt" height="256pt" viewBox="0 0 256 256" version="1.1">
<g id="surface1">
<path style=" stroke:none;fill-rule:nonzero;fill:rgb(16.078431%,56.862745%,88.627451%);fill-opacity:1;" d="M 127.976562 0.03125 C 93.605469 0.03125 62.03125 13.128906 37.671875 37.484375 C 13.316406 61.839844 0.21875 93.417969 0.21875 127.789062 C 0.21875 162.160156 13.316406 193.734375 37.671875 218.089844 C 58.125 238.542969 83.6875 251.058594 112.617188 254.78125 C 123.976562 256.246094 141.390625 255.503906 153.804688 253.03125 C 198.496094 244.125 236.679688 209.507812 250.0625 165.765625 C 264.101562 119.871094 252.058594 71.261719 218.28125 37.484375 C 193.921875 13.128906 162.347656 0.03125 127.976562 0.03125 Z M 126.8125 10.050781 C 145.300781 9.882812 163.777344 14.070312 180.617188 22.507812 C 203.695312 34.070312 221.695312 52.066406 233.257812 75.148438 C 249.878906 108.324219 249.878906 147.253906 233.257812 180.429688 C 227.457031 192.003906 221.679688 200.144531 212.476562 209.703125 C 193.003906 229.929688 167.222656 242.261719 138.546875 245.0625 C 117.160156 247.152344 95.089844 242.964844 75.335938 233.066406 C 63.757812 227.269531 55.621094 221.492188 46.0625 212.289062 C 9.191406 176.796875 -0.304688 121.058594 22.695312 75.148438 C 36.523438 47.550781 60.273438 26.671875 89.363281 16.546875 C 101.507812 12.320312 114.164062 10.167969 126.8125 10.050781 Z M 126.8125 10.050781 "/>
<path style=" stroke:none;fill-rule:nonzero;fill:rgb(16.078431%,56.862745%,88.627451%);fill-opacity:1;" d="M 198.449219 104.503906 C 198.449219 104.410156 198.4375 104.320312 198.429688 104.230469 C 198.425781 104.144531 198.425781 104.058594 198.410156 103.972656 C 198.398438 103.886719 198.378906 103.804688 198.359375 103.71875 C 198.34375 103.628906 198.332031 103.539062 198.308594 103.453125 C 198.285156 103.375 198.253906 103.296875 198.226562 103.21875 C 198.199219 103.132812 198.171875 103.039062 198.136719 102.953125 C 198.105469 102.875 198.0625 102.804688 198.023438 102.726562 C 197.984375 102.644531 197.949219 102.5625 197.90625 102.484375 C 197.859375 102.40625 197.808594 102.332031 197.757812 102.261719 C 197.710938 102.191406 197.667969 102.113281 197.613281 102.046875 C 197.558594 101.972656 197.492188 101.90625 197.433594 101.835938 C 197.378906 101.777344 197.328125 101.707031 197.269531 101.648438 C 197.207031 101.585938 197.132812 101.53125 197.070312 101.472656 C 197 101.414062 196.941406 101.351562 196.867188 101.296875 C 196.726562 101.1875 196.578125 101.089844 196.421875 101 L 131.929688 63.765625 C 130.675781 63.039062 129.125 63.042969 127.867188 63.773438 L 63.820312 100.992188 C 63.820312 100.992188 63.820312 100.992188 63.820312 100.996094 L 63.804688 101 C 63.738281 101.042969 63.675781 101.089844 63.609375 101.132812 C 63.527344 101.1875 63.445312 101.238281 63.367188 101.296875 C 63.292969 101.351562 63.230469 101.414062 63.164062 101.476562 C 63.097656 101.535156 63.03125 101.585938 62.96875 101.648438 C 62.902344 101.714844 62.847656 101.789062 62.785156 101.859375 C 62.730469 101.917969 62.671875 101.980469 62.625 102.042969 C 62.566406 102.117188 62.519531 102.199219 62.464844 102.277344 C 62.421875 102.34375 62.371094 102.410156 62.332031 102.480469 C 62.285156 102.558594 62.25 102.640625 62.210938 102.726562 C 62.171875 102.800781 62.128906 102.871094 62.097656 102.949219 C 62.066406 103.03125 62.039062 103.117188 62.011719 103.203125 C 61.984375 103.285156 61.953125 103.363281 61.929688 103.445312 C 61.90625 103.535156 61.890625 103.625 61.875 103.714844 C 61.855469 103.800781 61.835938 103.882812 61.824219 103.964844 C 61.808594 104.054688 61.808594 104.148438 61.804688 104.242188 C 61.796875 104.324219 61.785156 104.40625 61.785156 104.492188 L 61.65625 151.691406 C 61.652344 153.140625 62.421875 154.484375 63.679688 155.210938 L 128.171875 192.445312 C 128.796875 192.808594 129.5 192.988281 130.195312 192.988281 C 130.375 192.988281 130.546875 192.976562 130.722656 192.953125 C 130.753906 192.949219 130.785156 192.9375 130.816406 192.933594 C 130.960938 192.910156 131.101562 192.886719 131.242188 192.847656 C 131.273438 192.84375 131.304688 192.824219 131.335938 192.820312 C 131.472656 192.777344 131.609375 192.734375 131.746094 192.679688 C 131.785156 192.660156 131.820312 192.640625 131.859375 192.625 C 131.980469 192.570312 132.101562 192.515625 132.21875 192.445312 C 132.222656 192.445312 132.226562 192.441406 132.226562 192.441406 C 132.230469 192.4375 132.234375 192.4375 132.234375 192.4375 L 196.300781 155.207031 C 197.542969 154.484375 198.3125 153.152344 198.316406 151.714844 L 198.449219 104.519531 C 198.449219 104.519531 198.449219 104.515625 198.449219 104.511719 C 198.449219 104.507812 198.449219 104.507812 198.449219 104.503906 Z M 129.910156 71.960938 L 154.1875 85.976562 L 98.019531 118.40625 L 73.925781 104.492188 Z M 126.164062 181.925781 L 69.765625 149.363281 L 69.875 111.515625 L 126.273438 144.074219 Z M 130.324219 137.054688 L 106.125 123.085938 L 162.292969 90.65625 L 186.308594 104.519531 Z M 190.214844 149.367188 L 134.269531 181.882812 L 134.378906 144.074219 L 190.324219 111.5625 Z M 190.214844 149.367188 "/>
<path style=" stroke:none;fill-rule:nonzero;fill:rgb(16.078431%,56.862745%,88.627451%);fill-opacity:1;" d="M 121.59375 173.820312 L 97.378906 159.839844 L 97.421875 143.585938 L 121.640625 157.566406 Z M 121.59375 173.820312 "/>
</g>
</svg>
